<mxfile host="app.diagrams.net" modified="2023-04-21T05:35:08.106Z" agent="Mozilla/5.0 (Windows NT 10.0; Win64; x64) AppleWebKit/537.36 (KHTML, like Gecko) Chrome/112.0.0.0 Safari/537.36" etag="1J-RGVTorxtcqU3bThLG" version="21.1.2" type="device">
  <diagram name="Page-1" id="5zkRu18BjuWIeOW6pVk6">
    <mxGraphModel dx="2284" dy="792" grid="1" gridSize="10" guides="1" tooltips="1" connect="1" arrows="1" fold="1" page="1" pageScale="1" pageWidth="850" pageHeight="1100" math="0" shadow="0">
      <root>
        <mxCell id="0" />
        <mxCell id="1" parent="0" />
        <mxCell id="r_NVwcps6o1p1cS2S8Ud-4" style="edgeStyle=orthogonalEdgeStyle;rounded=0;orthogonalLoop=1;jettySize=auto;html=1;exitX=0.5;exitY=1;exitDx=0;exitDy=0;entryX=0.5;entryY=0;entryDx=0;entryDy=0;" edge="1" parent="1" source="r_NVwcps6o1p1cS2S8Ud-1" target="r_NVwcps6o1p1cS2S8Ud-3">
          <mxGeometry relative="1" as="geometry" />
        </mxCell>
        <mxCell id="r_NVwcps6o1p1cS2S8Ud-6" style="edgeStyle=orthogonalEdgeStyle;rounded=0;orthogonalLoop=1;jettySize=auto;html=1;exitX=0.5;exitY=1;exitDx=0;exitDy=0;entryX=0.5;entryY=0;entryDx=0;entryDy=0;" edge="1" parent="1" source="r_NVwcps6o1p1cS2S8Ud-1" target="r_NVwcps6o1p1cS2S8Ud-5">
          <mxGeometry relative="1" as="geometry" />
        </mxCell>
        <mxCell id="r_NVwcps6o1p1cS2S8Ud-1" value="&lt;b&gt;Animal&amp;nbsp;&lt;/b&gt;&lt;br&gt;&lt;br&gt;&lt;i&gt;Color&lt;/i&gt;, &lt;i&gt;Energy&lt;br&gt;&lt;/i&gt;&lt;br&gt;isActive()&lt;br&gt;sleep()&lt;br&gt;getColor()" style="rounded=1;whiteSpace=wrap;html=1;fillColor=#dae8fc;strokeColor=#6c8ebf;" vertex="1" parent="1">
          <mxGeometry x="200" y="10" width="420" height="110" as="geometry" />
        </mxCell>
        <mxCell id="r_NVwcps6o1p1cS2S8Ud-8" style="edgeStyle=orthogonalEdgeStyle;rounded=0;orthogonalLoop=1;jettySize=auto;html=1;exitX=0.5;exitY=1;exitDx=0;exitDy=0;" edge="1" parent="1" source="r_NVwcps6o1p1cS2S8Ud-3" target="r_NVwcps6o1p1cS2S8Ud-7">
          <mxGeometry relative="1" as="geometry" />
        </mxCell>
        <mxCell id="r_NVwcps6o1p1cS2S8Ud-10" style="edgeStyle=orthogonalEdgeStyle;rounded=0;orthogonalLoop=1;jettySize=auto;html=1;exitX=0.5;exitY=1;exitDx=0;exitDy=0;entryX=0.5;entryY=0;entryDx=0;entryDy=0;" edge="1" parent="1" source="r_NVwcps6o1p1cS2S8Ud-3" target="r_NVwcps6o1p1cS2S8Ud-9">
          <mxGeometry relative="1" as="geometry" />
        </mxCell>
        <mxCell id="r_NVwcps6o1p1cS2S8Ud-3" value="Cat&lt;br&gt;&lt;br&gt;&lt;i&gt;sound, canJumpHigh, canClimbTrees&lt;br&gt;&lt;/i&gt;super : color, energy&lt;br&gt;&lt;br&gt;makeSound()" style="rounded=1;whiteSpace=wrap;html=1;fillColor=#d5e8d4;strokeColor=#82b366;" vertex="1" parent="1">
          <mxGeometry x="40" y="160" width="250" height="110" as="geometry" />
        </mxCell>
        <mxCell id="r_NVwcps6o1p1cS2S8Ud-12" style="edgeStyle=orthogonalEdgeStyle;rounded=0;orthogonalLoop=1;jettySize=auto;html=1;exitX=0.5;exitY=1;exitDx=0;exitDy=0;" edge="1" parent="1" source="r_NVwcps6o1p1cS2S8Ud-5" target="r_NVwcps6o1p1cS2S8Ud-11">
          <mxGeometry relative="1" as="geometry" />
        </mxCell>
        <mxCell id="r_NVwcps6o1p1cS2S8Ud-5" value="Bird&lt;br&gt;&lt;br&gt;&lt;i&gt;sound, canFly&amp;nbsp;&lt;br&gt;&lt;/i&gt;super : color, energy&lt;br&gt;&lt;br&gt;makeSound()" style="rounded=1;whiteSpace=wrap;html=1;fillColor=#d5e8d4;strokeColor=#82b366;" vertex="1" parent="1">
          <mxGeometry x="560" y="160" width="240" height="110" as="geometry" />
        </mxCell>
        <mxCell id="r_NVwcps6o1p1cS2S8Ud-7" value="House Cat&lt;br&gt;&lt;br&gt;&lt;i&gt;houseCatSound&lt;br&gt;&lt;/i&gt;&lt;br&gt;super : sound, canJumpHigh, canClimbTrees,color,energy&lt;br&gt;&lt;br&gt;makeSound()" style="rounded=1;whiteSpace=wrap;html=1;fillColor=#ffe6cc;strokeColor=#d79b00;" vertex="1" parent="1">
          <mxGeometry x="-230" y="320" width="320" height="110" as="geometry" />
        </mxCell>
        <mxCell id="r_NVwcps6o1p1cS2S8Ud-9" value="Tiger&lt;br&gt;&lt;br&gt;&lt;i&gt;tigerCatSound&lt;br&gt;&lt;/i&gt;&lt;br&gt;super : sound, canJumpHigh, canClimbTrees, color, energy&amp;nbsp;&lt;br&gt;&lt;br&gt;makeSound()" style="rounded=1;whiteSpace=wrap;html=1;fillColor=#ffe6cc;strokeColor=#d79b00;" vertex="1" parent="1">
          <mxGeometry x="240" y="320" width="260" height="120" as="geometry" />
        </mxCell>
        <mxCell id="r_NVwcps6o1p1cS2S8Ud-11" value="Parrot&lt;br&gt;&lt;br&gt;&lt;i&gt;can Talk&amp;nbsp;&lt;br&gt;&lt;/i&gt;&lt;br&gt;super : sound, canFly, color, energy&lt;br&gt;&lt;br&gt;makeSound()" style="rounded=1;whiteSpace=wrap;html=1;fillColor=#ffe6cc;strokeColor=#d79b00;" vertex="1" parent="1">
          <mxGeometry x="560" y="320" width="240" height="120" as="geometry" />
        </mxCell>
      </root>
    </mxGraphModel>
  </diagram>
</mxfile>
